<svg width="69" height="45" viewBox="0 0 69 45" fill="none" xmlns="http://www.w3.org/2000/svg">
    <rect width="33" height="34" rx="5" fill="white"/>
    <path d="M6 28H17.2766C23.234 28 26 25.8846 26 21.6538C26 17.4231 21.9574 16.5769 21.9574 16.5769V16.3654C21.9574 16.3654 25.3617 15.5192 25.3617 11.9231C25.3617 7.90385 22.383 6 16.6383 6H6V28ZM16.6383 18.6923C18.766 18.6923 20.0426 19.5385 20.0426 21.2308C20.0426 22.9231 18.9787 23.7692 17.0638 23.7692H11.9574V18.6923H16.6383ZM11.9574 14.8846V10.2308H16.6383C18.5532 10.2308 19.4043 11.0769 19.4043 12.5577C19.4043 14.0385 18.3404 14.8846 16.2128 14.8846H11.9574Z" fill="black"/>
    <rect x="36" y="4" width="33" height="34" rx="5" fill="#013AAC"/>
    <path d="M42 9V13.819H48.8085V25.6476C48.8085 30.9048 51.5745 32 55.617 32C58.1702 32 59.234 31.5619 59.234 31.5619V26.9619C59.234 26.9619 58.5957 27.181 57.3191 27.181C55.4043 27.181 54.766 26.5238 54.766 24.5524V13.819H62V9H42Z" fill="white"/>
    <path d="M5 41V34H12L5 41Z" fill="white"/>
    <path d="M64 45V38H57L64 45Z" fill="#013AAC"/>
</svg>
